<svg width="20" height="20" viewBox="0 0 20 20" fill="none" xmlns="http://www.w3.org/2000/svg">
<path d="M3.3335 18.3334V1.66675H11.6668L16.6668 6.66675V18.3334H3.3335ZM11.8335 7.50008C11.2812 7.50008 10.8335 7.05237 10.8335 6.50008V3.33341H5.00016V16.6667H15.0002V7.50008H11.8335Z" fill="#FFB700"/>
<path d="M12.0832 11.25C12.7735 11.25 13.3332 10.6904 13.3332 10C13.3332 9.30964 12.7735 8.75 12.0832 8.75C11.415 8.75 10.8692 9.27429 10.8349 9.93394L8.73174 11.1357C8.51287 10.9473 8.22799 10.8333 7.9165 10.8333C7.22615 10.8333 6.6665 11.393 6.6665 12.0833C6.6665 12.7737 7.22615 13.3333 7.9165 13.3333C8.22799 13.3333 8.51287 13.2194 8.73174 13.0309L10.8349 14.2327C10.8692 14.8924 11.415 15.4167 12.0832 15.4167C12.7735 15.4167 13.3332 14.857 13.3332 14.1667C13.3332 13.4763 12.7735 12.9167 12.0832 12.9167C11.8324 12.9167 11.5988 12.9905 11.4031 13.1177L9.5929 12.0833L11.4031 11.049C11.5988 11.1761 11.8324 11.25 12.0832 11.25Z" fill="#FFB700"/>
</svg>
