<svg width="20" height="20" viewBox="0 0 20 20" fill="none" xmlns="http://www.w3.org/2000/svg">
<path fill-rule="evenodd" clip-rule="evenodd" d="M9.1665 4.99992C7.32555 4.99992 5.83317 6.4923 5.83317 8.33325C5.83317 8.58565 5.86107 8.83053 5.91364 9.06535C6.01414 9.51433 5.73176 9.95981 5.28282 10.0605C4.16663 10.3109 3.33317 11.3091 3.33317 12.4999C3.33317 13.8806 4.45246 14.9999 5.83317 14.9999H13.3332C15.1741 14.9999 16.6665 13.5075 16.6665 11.6666C16.6665 9.82564 15.1741 8.33325 13.3332 8.33325C13.3108 8.33325 13.2886 8.33347 13.2663 8.33391C12.8638 8.34179 12.5133 8.06086 12.4333 7.66635C12.1248 6.14488 10.7784 4.99992 9.1665 4.99992ZM4.1665 8.33325C4.1665 5.57183 6.40508 3.33325 9.1665 3.33325C11.3557 3.33325 13.2149 4.73946 13.8926 6.69753C16.3907 6.97563 18.3332 9.09426 18.3332 11.6666C18.3332 14.428 16.0946 16.6666 13.3332 16.6666H5.83317C3.53198 16.6666 1.6665 14.8011 1.6665 12.4999C1.6665 10.7862 2.70044 9.3155 4.17805 8.6752C4.17039 8.56212 4.1665 8.4481 4.1665 8.33325Z" fill="#2F3033"/>
</svg>
