<svg width="20" height="20" viewBox="0 0 20 20" fill="none" xmlns="http://www.w3.org/2000/svg">
<path fill-rule="evenodd" clip-rule="evenodd" d="M7.15482 2.1549C7.46738 1.84234 7.89131 1.66675 8.33333 1.66675H11.6667C12.1087 1.66675 12.5326 1.84234 12.8452 2.1549C13.1577 2.46746 13.3333 2.89139 13.3333 3.33341V5.00008H15.0666L15.0721 4.93376L15.868 5.00008H17.5V6.66675H16.6001L15.833 15.8716C15.8231 16.5208 15.5609 17.1413 15.1011 17.6012C14.6323 18.07 13.9964 18.3334 13.3333 18.3334H6.66667C6.00362 18.3334 5.36774 18.07 4.8989 17.6012C4.43906 17.1413 4.17685 16.5208 4.16696 15.8716L3.39989 6.66675H2.5V5.00008H4.132L4.92792 4.93376L4.93344 5.00008H6.66667V3.33341C6.66667 2.89139 6.84226 2.46746 7.15482 2.1549ZM5.07233 6.66675L5.83045 15.7642C5.83237 15.7872 5.83333 15.8103 5.83333 15.8334C5.83333 16.0544 5.92113 16.2664 6.07741 16.4227C6.23369 16.579 6.44565 16.6667 6.66667 16.6667H13.3333C13.5543 16.6667 13.7663 16.579 13.9226 16.4227C14.0789 16.2664 14.1667 16.0544 14.1667 15.8334C14.1667 15.8103 14.1676 15.7872 14.1695 15.7642L14.9277 6.66675H5.07233ZM11.6667 5.00008H8.33333V3.33341H11.6667V5.00008ZM9.16667 8.33342V15.0001H7.5V8.33342H9.16667ZM12.5 8.33342V15.0001H10.8333V8.33342H12.5Z" fill="#2F3033"/>
</svg>
