<svg width="200" height="200" viewBox="0 0 200 200" fill="none" xmlns="http://www.w3.org/2000/svg">
<rect x="69.355" y="17.8882" width="72.7259" height="99.8198" transform="rotate(8.03181 69.355 17.8882)" fill="#BDBDBD"/>
<rect x="59.373" y="23.5922" width="72.7259" height="99.8198" transform="rotate(8.03181 59.373 23.5922)" fill="#EFEFEF"/>
<path d="M117.155 134.482L44.3391 134.261L44.6387 35.3425L94.9889 35.4952L117.386 58.0286L117.155 134.482Z" fill="white"/>
<path d="M94.9889 35.4952L94.9209 57.9606L117.386 58.0286L94.9889 35.4952Z" fill="#FFB700"/>
<path d="M117.722 58.0082C117.72 57.9785 117.715 57.9493 117.705 57.9211C117.701 57.9099 117.698 57.8993 117.694 57.8871C117.678 57.8502 117.655 57.8165 117.628 57.7874L95.2303 35.254C95.2014 35.2256 95.1677 35.2026 95.1307 35.186C95.1201 35.1813 95.1099 35.1785 95.0991 35.1748C95.0705 35.1649 95.0408 35.1589 95.0106 35.1568C95.0035 35.1568 94.997 35.1527 94.9899 35.1527L44.6397 35C44.5495 35 44.463 35.0358 44.3992 35.0996C44.3355 35.1634 44.2996 35.2499 44.2996 35.3401L44 134.259C44 134.349 44.0358 134.436 44.0996 134.5C44.1634 134.563 44.2499 134.599 44.3401 134.599L117.155 134.82C117.245 134.82 117.331 134.784 117.395 134.72C117.459 134.656 117.495 134.57 117.495 134.48L117.726 58.0262C117.726 58.0221 117.723 58.0156 117.722 58.0082ZM95.3259 36.3172L116.566 57.6861L95.2613 57.6215L95.3259 36.3172ZM44.6802 133.922L44.9778 35.6836L94.6478 35.8343L94.5797 57.9595C94.5797 58.0497 94.6156 58.1362 94.6793 58.2C94.7431 58.2638 94.8296 58.2996 94.9198 58.2996L117.045 58.3676L116.816 134.141L44.6802 133.922Z" fill="#444342"/>
<line x1="52.5559" y1="51.7556" x2="81.0759" y2="51.7556" stroke="#444342" stroke-width="0.712999"/>
<line x1="52.5559" y1="64.5895" x2="106.744" y2="64.5895" stroke="#444342" stroke-width="0.712999"/>
<line x1="52.5559" y1="108.795" x2="106.744" y2="108.795" stroke="#444342" stroke-width="0.712999"/>
<line x1="52.5559" y1="71.7196" x2="106.744" y2="71.7196" stroke="#444342" stroke-width="0.712999"/>
<line x1="52.5559" y1="115.925" x2="106.744" y2="115.925" stroke="#444342" stroke-width="0.712999"/>
<line x1="52.5559" y1="77.4235" x2="106.744" y2="77.4235" stroke="#444342" stroke-width="0.712999"/>
<line x1="52.5559" y1="121.629" x2="106.744" y2="121.629" stroke="#444342" stroke-width="0.712999"/>
<rect x="52.5559" y="83.484" width="39.9279" height="14.26" fill="#444342"/>
<g style="mix-blend-mode:darken" opacity="0.05">
<circle cx="110.309" cy="119.847" r="29.233" fill="#FFB700"/>
</g>
<g style="mix-blend-mode:screen" filter="url(#filter0_b_160_4946)">
<circle cx="110.309" cy="119.847" r="29.233" fill="#FFB700"/>
</g>
<path d="M139.542 119.847C139.542 135.992 126.454 149.08 110.309 149.08C94.164 149.08 81.0759 135.992 81.0759 119.847C81.0759 103.702 94.164 90.614 110.309 90.614C126.454 90.614 139.542 103.702 139.542 119.847ZM86.9225 119.847C86.9225 132.763 97.3929 143.233 110.309 143.233C123.225 143.233 133.695 132.763 133.695 119.847C133.695 106.931 123.225 96.4606 110.309 96.4606C97.3929 96.4606 86.9225 106.931 86.9225 119.847Z" fill="#2A2929"/>
<rect x="129.315" y="134.82" width="36.9772" height="5.70399" transform="rotate(45 129.315 134.82)" fill="#2A2929"/>
<defs>
<filter id="filter0_b_160_4946" x="75.3719" y="84.91" width="69.8738" height="69.8739" filterUnits="userSpaceOnUse" color-interpolation-filters="sRGB">
<feFlood flood-opacity="0" result="BackgroundImageFix"/>
<feGaussianBlur in="BackgroundImageFix" stdDeviation="2.852"/>
<feComposite in2="SourceAlpha" operator="in" result="effect1_backgroundBlur_160_4946"/>
<feBlend mode="normal" in="SourceGraphic" in2="effect1_backgroundBlur_160_4946" result="shape"/>
</filter>
</defs>
</svg>
