<svg width="24" height="24" viewBox="0 0 24 24" fill="none" xmlns="http://www.w3.org/2000/svg">
<path d="M13.0002 11H18.0002L16.5002 9.49997L17.9202 8.07997L21.133 11.2929C21.5236 11.6834 21.5236 12.3166 21.133 12.7071L17.9202 15.92L16.5002 14.5L18.0002 13H13.0002V18L14.5002 16.5L15.9202 17.92L12.7073 21.1329C12.3167 21.5234 11.6836 21.5234 11.293 21.1329L8.08016 17.92L9.50016 16.5L11.0002 18V13H6.00016L7.50016 14.5L6.08016 15.92L2.86726 12.7071C2.47674 12.3166 2.47674 11.6834 2.86726 11.2929L6.08016 8.07997L7.50016 9.49997L6.00016 11H11.0002V5.99997L9.50016 7.49997L8.08016 6.07997L11.293 2.86708C11.6836 2.47656 12.3167 2.47656 12.7073 2.86708L15.9202 6.07997L14.5002 7.49997L13.0002 5.99997V11Z" fill="#2F3033"/>
</svg>
