<svg width="24" height="24" viewBox="0 0 24 24" fill="none" xmlns="http://www.w3.org/2000/svg">
<path d="M12 5.875L12 5.88375M12 12L12 12.0088M12 18.125L12 18.1338M12 6.75C11.5168 6.75 11.125 6.35825 11.125 5.875C11.125 5.39175 11.5168 5 12 5C12.4832 5 12.875 5.39175 12.875 5.875C12.875 6.35825 12.4832 6.75 12 6.75ZM12 12.875C11.5168 12.875 11.125 12.4832 11.125 12C11.125 11.5168 11.5168 11.125 12 11.125C12.4832 11.125 12.875 11.5168 12.875 12C12.875 12.4832 12.4832 12.875 12 12.875ZM12 19C11.5168 19 11.125 18.6082 11.125 18.125C11.125 17.6418 11.5168 17.25 12 17.25C12.4832 17.25 12.875 17.6418 12.875 18.125C12.875 18.6082 12.4832 19 12 19Z" stroke="#2F3033" stroke-width="2" stroke-linecap="round" stroke-linejoin="round"/>
</svg>
