<svg width="52" height="56" viewBox="0 0 52 56" fill="none" xmlns="http://www.w3.org/2000/svg">
<rect x="0.5" width="51" height="56" rx="2" fill="#8D9199"/>
<path d="M11.4531 22.6875H15.8906C16.7292 22.6875 17.4531 22.849 18.0625 23.1719C18.6719 23.4948 19.1354 23.9453 19.4531 24.5234C19.776 25.0964 19.9375 25.7552 19.9375 26.5C19.9375 27.2552 19.7734 27.9219 19.4453 28.5C19.1224 29.0729 18.651 29.5182 18.0312 29.8359C17.4167 30.1536 16.6823 30.3125 15.8281 30.3125H13.7969V34H11.4531V22.6875ZM15.4531 28.4219C16.1302 28.4219 16.6432 28.25 16.9922 27.9062C17.3464 27.5573 17.5208 27.0885 17.5156 26.5C17.5208 25.9219 17.3464 25.4635 16.9922 25.125C16.6432 24.7865 16.1302 24.6146 15.4531 24.6094H13.7969V28.4219H15.4531ZM21.4219 34V22.6875H25.4531C26.5833 22.6875 27.5599 22.9141 28.3828 23.3672C29.2109 23.8151 29.8438 24.4635 30.2812 25.3125C30.7188 26.1562 30.9375 27.1615 30.9375 28.3281C30.9375 29.5 30.7161 30.513 30.2734 31.3672C29.8359 32.2161 29.2005 32.8672 28.3672 33.3203C27.5391 33.7734 26.5521 34 25.4062 34H21.4219ZM25.3125 31.9844C26.4062 31.9844 27.2266 31.6875 27.7734 31.0938C28.3203 30.5 28.5938 29.5781 28.5938 28.3281C28.5938 27.0885 28.3203 26.1745 27.7734 25.5859C27.2318 24.9974 26.4167 24.7031 25.3281 24.7031H23.7656V31.9844H25.3125ZM32.6406 22.6875H40.0938V24.625H34.9844V27.375H39.6094V29.3125H34.9844V34H32.6406V22.6875Z" fill="white"/>
</svg>
