<svg width="24" height="24" viewBox="0 0 24 24" fill="none" xmlns="http://www.w3.org/2000/svg">
<path fill-rule="evenodd" clip-rule="evenodd" d="M8.58579 2.58579C8.96086 2.21071 9.46957 2 10 2H14C14.5304 2 15.0391 2.21071 15.4142 2.58579C15.7893 2.96086 16 3.46957 16 4V6H18.0799L18.0865 5.92041L19.0416 6H21V8H19.9201L18.9997 19.0458C18.9878 19.8249 18.6731 20.5695 18.1213 21.1213C17.5587 21.6839 16.7957 22 16 22H8C7.20435 22 6.44129 21.6839 5.87868 21.1213C5.32687 20.5695 5.01223 19.8249 5.00035 19.0458L4.07987 8H3V6H4.95841L5.9135 5.92041L5.92013 6H8V4C8 3.46957 8.21071 2.96086 8.58579 2.58579ZM6.0868 8L6.99655 18.917C6.99885 18.9446 7 18.9723 7 19C7 19.2652 7.10536 19.5196 7.29289 19.7071C7.48043 19.8946 7.73478 20 8 20H16C16.2652 20 16.5196 19.8946 16.7071 19.7071C16.8946 19.5196 17 19.2652 17 19C17 18.9723 17.0012 18.9446 17.0035 18.917L17.9132 8H6.0868ZM14 6H10V4H14V6ZM11 10V18H9V10H11ZM15 10V18H13V10H15Z" fill="#2F3033"/>
</svg>
