<svg width="52" height="70" viewBox="0 0 52 70" fill="none" xmlns="http://www.w3.org/2000/svg">
<path d="M51.3007 69.7631L0.237793 69.6083L0.447911 0.240112L35.7566 0.347195L51.4631 16.149L51.3007 69.7631Z" fill="white"/>
<path d="M35.7567 0.347168L35.709 16.1013L51.4631 16.149L35.7567 0.347168Z" fill="#FFB700"/>
<path d="M51.6987 16.1348C51.6974 16.114 51.6934 16.0935 51.6868 16.0737C51.6842 16.0659 51.682 16.0585 51.6787 16.0499C51.6675 16.024 51.6519 16.0003 51.6324 15.98L35.926 0.178156C35.9057 0.158218 35.882 0.142065 35.8561 0.130457C35.8487 0.127118 35.8415 0.125209 35.8339 0.122586C35.8139 0.115663 35.793 0.111415 35.7719 0.109947C35.7669 0.109947 35.7623 0.107083 35.7573 0.107083L0.448608 0C0.385355 0 0.324696 0.0251271 0.279969 0.0698539C0.235242 0.114581 0.210111 0.175243 0.210111 0.238497L0 69.6067C0 69.67 0.0251234 69.7306 0.0698503 69.7754C0.114577 69.8201 0.175243 69.8452 0.238497 69.8452L51.3007 70C51.3639 70 51.4246 69.9749 51.4693 69.9301C51.514 69.8854 51.5392 69.8248 51.5392 69.7615L51.7016 16.1474C51.7016 16.1446 51.6989 16.14 51.6987 16.1348ZM35.993 0.923698L50.8876 15.9089L35.9477 15.8636L35.993 0.923698ZM0.476994 69.3706L0.685678 0.479377L35.5174 0.585033L35.4697 16.1007C35.4697 16.1639 35.4948 16.2246 35.5396 16.2693C35.5843 16.314 35.645 16.3392 35.7082 16.3392L51.2239 16.3869L51.0629 69.5239L0.476994 69.3706Z" fill="#0F0F0F"/>
</svg>
