<svg width="24" height="24" viewBox="0 0 24 24" fill="none" xmlns="http://www.w3.org/2000/svg">
<path fill-rule="evenodd" clip-rule="evenodd" d="M12 4C7.58172 4 4 7.58172 4 12C4 16.4183 7.58172 20 12 20C16.4183 20 20 16.4183 20 12C20 7.58172 16.4183 4 12 4ZM2 12C2 6.47715 6.47715 2 12 2C17.5228 2 22 6.47715 22 12C22 17.5228 17.5228 22 12 22C6.47715 22 2 17.5228 2 12Z" fill="#2F3033"/>
<path d="M11.3447 14.0263C11.3447 13.2447 11.4148 12.6828 11.5549 12.3404C11.695 11.9981 11.9916 11.6241 12.4447 11.2184C12.8403 10.871 13.142 10.5696 13.3496 10.3141C13.5573 10.0586 13.6609 9.76661 13.6605 9.43815C13.6605 9.04254 13.5279 8.71447 13.2628 8.45394C12.9976 8.19342 12.6285 8.06316 12.1553 8.06316C11.6632 8.06316 11.2893 8.21272 11.0338 8.51184C10.7783 8.81096 10.5973 9.11491 10.4908 9.42368L9 8.78684C9.20263 8.1693 9.57412 7.63377 10.1145 7.18026C10.6548 6.72675 11.3351 6.5 12.1553 6.5C13.1684 6.5 13.9477 6.78233 14.493 7.347C15.0384 7.91166 15.3109 8.58942 15.3105 9.38026C15.3105 9.86271 15.2069 10.2753 14.9996 10.618C14.7924 10.9608 14.4666 11.3491 14.0224 11.7829C13.5496 12.2364 13.2626 12.5814 13.1615 12.818C13.0603 13.0546 13.0096 13.4574 13.0092 14.0263H11.3447ZM12.1553 17.5C11.8368 17.5 11.5643 17.3867 11.3378 17.1601C11.1112 16.9336 10.9978 16.6609 10.9974 16.3421C10.997 16.0233 11.1105 15.7508 11.3378 15.5246C11.5651 15.2984 11.8376 15.185 12.1553 15.1842C12.4729 15.1834 12.7456 15.2969 12.9733 15.5246C13.201 15.7523 13.3143 16.0248 13.3132 16.3421C13.312 16.6594 13.1987 16.932 12.9733 17.1601C12.7479 17.3882 12.4752 17.5015 12.1553 17.5Z" fill="#2F3033"/>
</svg>
